<?xml version="1.0" encoding="UTF-8"?>
<svg width="16px" height="17px" viewBox="0 0 16 17" version="1.1" xmlns="http://www.w3.org/2000/svg" xmlns:xlink="http://www.w3.org/1999/xlink">
    <!-- Generator: sketchtool 53 (72520) - https://sketchapp.com -->
    <title>E7D34BB3-11C4-4E56-B096-C8ADE15E8B37</title>
    <desc>Created with sketchtool.</desc>
    <g id="Page-1" stroke="none" stroke-width="1" fill="none" fill-rule="evenodd">
        <g id="00_HomePage_01" transform="translate(-1254.000000, -9.000000)" fill="#555555" fill-rule="nonzero">
            <g id="Approved-Header">
                <path d="M1269.95814,15.7329173 C1269.85279,15.4014275 1269.56543,15.1667367 1269.2268,15.1353863 L1264.60808,14.706348 L1262.78274,10.3337799 C1262.64797,10.0125321 1262.34132,9.80519481 1262.00001,9.80519481 C1261.6587,9.80519481 1261.35193,10.0125321 1261.21802,10.3337799 L1259.39267,14.706348 L1254.77321,15.1353863 C1254.43459,15.1673612 1254.14784,15.402052 1254.04188,15.7329173 C1253.93653,16.0644071 1254.03382,16.4279968 1254.28993,16.6578164 L1257.78132,19.7902328 L1256.75188,24.4293417 C1256.67656,24.770449 1256.80596,25.1231722 1257.08258,25.3277616 C1257.23126,25.4382998 1257.40595,25.4935065 1257.58124,25.4935065 C1257.73188,25.4935065 1257.88264,25.4525386 1258.01728,25.3701033 L1262.00001,22.9335158 L1265.982,25.3701033 C1266.27412,25.5487132 1266.64144,25.532351 1266.91744,25.3277616 C1267.19406,25.1231722 1267.32346,24.770449 1267.24814,24.4293417 L1266.2187,19.7902328 L1269.71009,16.6578164 C1269.96607,16.4279968 1270.06349,16.0651565 1269.95814,15.7329173 Z" id="Path-Copy-2"></path>
            </g>
        </g>
    </g>
</svg>